<svg width="58" height="40" viewBox="0 0 58 40" fill="none" xmlns="http://www.w3.org/2000/svg">
<path d="M14.5412 10.3125C13.293 10.3127 12.0766 10.7008 11.065 11.4217C10.0533 12.1426 9.29788 13.1596 8.90603 14.3281C8.88701 14.3812 8.87117 14.4344 8.85532 14.4875L8.72537 15L5.4292 29.0625H13.7299C14.9064 29.0606 16.0539 28.7027 17.0175 28.0371C17.9811 27.3715 18.7142 26.4302 19.1178 25.3406L19.4348 24L22.6454 10.3125H14.5412Z" fill="#0B67B1"/>
<path d="M30.2013 5.625C28.9104 5.6251 27.6549 6.04049 26.6253 6.80809C25.5957 7.57569 24.8482 8.65359 24.4963 9.87813C24.4419 10.0621 24.3975 10.2488 24.3632 10.4375L18.9023 33.75H27.0033C28.325 33.7499 29.6089 33.3149 30.6515 32.5139C31.6941 31.7129 32.4358 30.5918 32.759 29.3281L38.3117 5.625H30.2013Z" fill="#F27023"/>
<path d="M43.6775 10.3125C42.4737 10.3127 41.2985 10.6739 40.3078 11.3481C39.3172 12.0224 38.558 12.9778 38.131 14.0875C38.0866 14.2 37.9345 14.6656 37.9345 14.6656L34.5654 29.0625H42.6696C43.9952 29.062 45.2826 28.6243 46.3267 27.819C47.3709 27.0138 48.1118 25.8872 48.4316 24.6187L51.7784 10.3125H43.6775Z" fill="#0DB04B"/>
<path d="M49.4238 27.2876C49.4238 26.9444 49.5271 26.609 49.7205 26.3237C49.9139 26.0384 50.1888 25.8161 50.5104 25.6849C50.832 25.5538 51.1859 25.5196 51.5272 25.5868C51.8685 25.654 52.1819 25.8194 52.4278 26.0623C52.6737 26.3052 52.8409 26.6145 52.9084 26.9512C52.976 27.2878 52.9407 27.6366 52.8071 27.9535C52.6734 28.2703 52.4475 28.541 52.1578 28.7312C51.8681 28.9214 51.5277 29.0226 51.1797 29.022C50.7137 29.0211 50.2671 28.838 49.9379 28.5129C49.6087 28.1877 49.4238 27.747 49.4238 27.2876ZM52.5108 27.2876C52.4941 27.0322 52.4021 26.7873 52.2461 26.5828C52.09 26.3784 51.8768 26.2233 51.6326 26.1368C51.3884 26.0503 51.1238 26.036 50.8715 26.0958C50.6191 26.1556 50.39 26.2868 50.2123 26.4732C50.0346 26.6597 49.9161 26.8933 49.8713 27.1454C49.8265 27.3974 49.8574 27.6569 49.9601 27.8918C50.0629 28.1268 50.2331 28.327 50.4498 28.4678C50.6665 28.6086 50.9202 28.6839 51.1797 28.6845C51.3611 28.6822 51.5402 28.6438 51.7063 28.5717C51.8724 28.4997 52.022 28.3953 52.1463 28.2649C52.2705 28.1345 52.3668 27.9808 52.4295 27.8129C52.4921 27.6449 52.5198 27.4663 52.5108 27.2876ZM50.5046 26.3001H51.2431C51.7216 26.3001 51.9815 26.4626 51.9815 26.8751C51.9871 26.9448 51.9774 27.0148 51.9533 27.0805C51.9291 27.1462 51.891 27.2061 51.8415 27.2561C51.792 27.3061 51.7322 27.3451 51.6662 27.3704C51.6001 27.3958 51.5294 27.407 51.4586 27.4032L51.9942 28.2626H51.6139L51.1004 27.4157H50.8754V28.2626H50.5046V26.3001ZM50.8754 27.1407H51.1924C51.4079 27.1407 51.6012 27.1095 51.6012 26.847C51.6012 26.5845 51.3857 26.5782 51.1955 26.5782H50.8786L50.8754 27.1407Z" fill="#0B67B1"/>
<path d="M48.2321 15.3999C48.0828 15.2542 47.9048 15.1402 47.7091 15.065C47.5134 14.9898 47.3042 14.9548 47.0943 14.9624H39.7539V15.0249C39.7242 15.1564 39.7072 15.2903 39.7032 15.4249C39.6938 15.6279 39.7269 15.8307 39.8006 16.0205C39.8742 16.2103 39.9867 16.3831 40.1311 16.5281C40.2799 16.6746 40.4577 16.7894 40.6535 16.8652C40.8492 16.941 41.0587 16.9763 41.2689 16.9687H42.8536L41.1326 24.3281H41.2309C41.7812 24.3213 42.3117 24.1245 42.73 23.7718C43.169 23.4364 43.4769 22.9617 43.6016 22.4281L44.8693 16.9687H48.5997V16.9031C48.6308 16.7687 48.6478 16.6315 48.6504 16.4937C48.6602 16.2929 48.6281 16.0922 48.5561 15.9041C48.4842 15.716 48.3739 15.5444 48.2321 15.3999Z" fill="white"/>
<path d="M32.404 14.9499H27.5105H25.4757L23.2856 24.3249H23.3839C23.9348 24.3184 24.4657 24.1203 24.883 23.7655C25.3218 23.4299 25.6296 22.9553 25.7546 22.4218L26.2015 20.4937H31.1426C31.693 20.4883 32.2243 20.2938 32.6449 19.9437C33.0876 19.6034 33.4004 19.1253 33.5323 18.5874L33.938 16.8905C33.9669 16.7548 33.9828 16.6167 33.9855 16.478C33.9949 16.2767 33.9614 16.0756 33.8871 15.8877C33.8129 15.6999 33.6996 15.5295 33.5545 15.3874C33.4031 15.2411 33.2229 15.1267 33.0251 15.0515C32.8272 14.9763 32.6159 14.9417 32.404 14.9499ZM27.0382 16.953H31.9508L31.5831 18.4905H26.6674L27.0382 16.953Z" fill="white"/>
<path d="M11.0486 15.5063C10.6471 15.8068 10.3503 16.2228 10.1992 16.6969L8.41797 24.3282H8.51622C9.06571 24.322 9.59541 24.1251 10.0122 23.7719C10.4508 23.4356 10.7594 22.9614 10.8869 22.4282L11.3433 20.4875H14.7599C15.3151 20.4774 15.8495 20.2775 16.2717 19.9219C16.7151 19.5847 17.0264 19.1066 17.1528 18.5688L17.175 18.4719H11.8156L12.1737 16.9438H17.2447C17.7936 16.9372 18.3228 16.7415 18.7407 16.3907C19.1766 16.0479 19.4844 15.5719 19.6155 15.0375L19.6408 14.9407H12.5509C11.9978 14.9469 11.4651 15.1474 11.0486 15.5063Z" fill="white"/>
</svg>
