<svg width="136" height="26" viewBox="0 0 136 26" fill="none" xmlns="http://www.w3.org/2000/svg">
<g clip-path="url(#clip0_3468_10759)">
<path fill-rule="evenodd" clip-rule="evenodd" d="M70.8989 17.8409V8.03027H79.7117C80.52 8.03027 81.0562 8.20452 81.5069 8.46967C81.8644 8.73482 82.0432 9.25755 82.0432 9.87118V12.1515C82.0432 12.7651 81.8644 13.2878 81.5069 13.553C81.1494 13.9015 80.52 13.9924 79.7117 13.9924H73.3314V17.7575H70.9067V17.8485L70.8989 17.8409ZM78.6315 9.78027H73.3314V12.4091H78.6315C79.0822 12.4091 79.3542 12.3182 79.533 12.2348C79.6262 12.1439 79.7117 11.8863 79.7117 11.6212V10.5682C79.7117 10.303 79.6185 10.1288 79.533 9.95452C79.3542 9.78027 79.0822 9.78027 78.6315 9.78027Z" fill="#828282"/>
<path fill-rule="evenodd" clip-rule="evenodd" d="M84.0244 17.8409V8.03027H92.744C93.5522 8.03027 94.1817 8.20452 94.5392 8.46967C94.8966 8.73482 95.0754 9.25755 95.0754 9.87118V12.1515C95.0754 12.856 94.8966 13.2878 94.5392 13.553C94.1817 13.9015 93.5522 13.9924 92.744 13.9924H91.3995L96.1634 17.6742H92.744L88.6096 14.1666H86.3636V17.8485H84.0244V17.8409ZM91.6637 9.78027H86.3636V12.5H91.6637C92.1145 12.5 92.3865 12.4091 92.5652 12.3257C92.6585 12.2348 92.744 11.9772 92.744 11.7121V10.5757C92.744 10.3106 92.6507 10.1363 92.5652 9.96209C92.3865 9.78785 92.1145 9.78785 91.6637 9.78785V9.78027Z" fill="#828282"/>
<path fill-rule="evenodd" clip-rule="evenodd" d="M97.8657 17.8409V8.03027H108.38V9.69694H100.29V11.803H105.054V13.4697H100.29V15.8333H108.474V17.6742H97.8657V17.8485V17.8409Z" fill="#828282"/>
<path fill-rule="evenodd" clip-rule="evenodd" d="M119.618 9.78043H112.966V11.8865H119.346C120.333 11.8865 121.056 12.0607 121.413 12.3259C121.771 12.6744 121.949 13.288 121.949 14.1668V15.4774C121.949 16.3562 121.771 16.9698 121.413 17.3183C121.056 17.6668 120.333 17.7577 119.346 17.7577H113.051C112.064 17.7577 111.435 17.5835 110.984 17.3183C110.626 16.9698 110.533 16.3562 110.533 15.4774V15.2122L112.6 14.7729V15.9092H119.789V13.7198H113.409C112.422 13.7198 111.792 13.5456 111.435 13.1971C111.077 12.8486 110.898 12.3183 110.898 11.4471V10.3941C110.898 9.51528 111.077 8.90164 111.435 8.64406C111.792 8.29558 112.422 8.12134 113.409 8.12134H119.253C120.24 8.12134 120.869 8.29558 121.227 8.56073C121.584 8.90922 121.763 9.43952 121.763 10.2274V10.4016L119.696 10.841V9.788H119.602L119.618 9.78043Z" fill="#828282"/>
<path fill-rule="evenodd" clip-rule="evenodd" d="M133.194 9.78043H126.542V11.8865H132.922C133.909 11.8865 134.539 12.0607 134.989 12.3259C135.347 12.6744 135.526 13.288 135.526 14.1668V15.4774C135.526 16.3562 135.347 16.9698 134.989 17.3183C134.632 17.6668 133.909 17.7577 132.922 17.7577H126.627C125.64 17.7577 124.918 17.5835 124.56 17.3183C124.203 16.9698 124.024 16.3562 124.024 15.4774V15.2122L126.091 14.7729V15.9092H133.373V13.7198H126.993C126.006 13.7198 125.376 13.5456 124.925 13.1971C124.568 12.8486 124.389 12.3183 124.389 11.4471V10.3941C124.389 9.51528 124.568 8.90164 124.925 8.64406C125.283 8.29558 126.006 8.12134 126.993 8.12134H132.837C133.738 8.12134 134.453 8.29558 134.811 8.56073C135.168 8.90922 135.347 9.43952 135.347 10.2274V10.4016L133.28 10.841V9.788H133.186L133.194 9.78043Z" fill="#828282"/>
<path fill-rule="evenodd" clip-rule="evenodd" d="M55.4414 17.8409L60.2986 12.8485L55.356 8.03027H58.5034L61.7363 11.3636L64.8837 8.03027H67.5804L63.174 12.5L68.7461 17.7575H65.5132L61.7363 13.9924L58.3169 17.7575H55.4414V17.8485V17.8409Z" fill="#828282"/>
<path fill-rule="evenodd" clip-rule="evenodd" d="M6.4501 17.8409L0.520508 8.03027H3.31046L7.44484 15.1288L11.3072 8.03027H13.6465L8.07435 17.8409H6.45788H6.4501Z" fill="#828282"/>
<path fill-rule="evenodd" clip-rule="evenodd" d="M15.5273 17.8409V8.03028H17.1438L24.3324 13.8106C24.6044 13.9848 24.8686 14.1591 24.9618 14.3333C25.1406 14.5076 25.3193 14.6818 25.4981 14.856C25.4048 14.3333 25.4048 13.8939 25.4048 13.7197V8.02271H27.5653V17.75H25.9488L18.395 11.7045C18.2163 11.5303 18.0375 11.4394 17.9442 11.2651C17.7655 11.1742 17.6723 11.0909 17.5868 10.9166C17.68 11.2651 17.68 11.5303 17.68 11.7954C17.7733 12.0606 17.7733 12.2348 17.7733 12.5V17.7576H15.5273V17.8485V17.8409Z" fill="#828282"/>
<path fill-rule="evenodd" clip-rule="evenodd" d="M52.83 24.1515C52.83 24.7651 52.2938 25.2879 51.571 25.2879H31.1633C30.4405 25.2879 29.9043 24.7651 29.9043 24.1515V1.89393C29.9043 1.2803 30.4405 0.757568 31.1633 0.757568H51.571C52.2938 0.757568 52.83 1.2803 52.83 1.89393V24.1515Z" fill="#9F224E"/>
<path fill-rule="evenodd" clip-rule="evenodd" d="M37.2796 10.1364V11.2728H43.0305V14.7804H37.2796V18.9849H49.5041V22.1364H33.2307V3.90915H49.5896V7.06067H37.3651V10.1288H37.2718L37.2796 10.1364ZM38.5386 8.12127H49.6828C50.4055 8.12127 50.763 7.59855 50.763 6.98491V3.91673C50.763 3.30309 50.3123 2.68945 49.6828 2.68945H33.324C32.6012 2.68945 31.9795 3.21218 31.9795 3.91673V22.2273C31.9795 22.841 32.609 23.3637 33.324 23.3637H49.6828C50.4055 23.3637 50.763 22.841 50.763 22.2273V19.0758C50.763 18.4622 50.3123 17.8485 49.6828 17.8485H38.5386V15.9243H43.1237C43.8465 15.9243 44.204 15.4016 44.204 14.7879V11.2804C44.204 10.6667 43.7532 10.0531 43.1237 10.0531H38.5386V8.12885V8.12127Z" fill="white"/>
</g>
<defs>
<clipPath id="clip0_3468_10759">
<rect width="136" height="25" fill="white" transform="translate(0 0.5)"/>
</clipPath>
</defs>
</svg>
