<svg width="125" height="50" viewBox="0 0 125 50" fill="none" xmlns="http://www.w3.org/2000/svg">
<g clip-path="url(#clip0_3773_212)">
<path d="M7.87891 40.1167H13.7217V41.6786H9.59795V44.0346H13.0372V45.5905H9.59795V48.9262H7.87891V40.1167Z" fill="#ED7024"/>
<path d="M18.4858 44.519C18.4858 41.9095 20.3144 40.0143 22.9787 40.0143C25.5632 40.0143 27.4584 41.8309 27.4584 44.519C27.4584 47.2131 25.5632 49.0286 22.9787 49.0286C20.3144 49.0286 18.4858 47.1333 18.4858 44.519ZM22.9834 47.4071C24.5037 47.4071 25.6477 46.1774 25.6477 44.519C25.6477 42.8607 24.5037 41.6429 22.9834 41.6429C21.3965 41.6429 20.3013 42.9202 20.3013 44.519C20.3025 46.1226 21.3977 47.4071 22.9834 47.4071Z" fill="#ED7024"/>
<path d="M32.9263 45.281V40.1167H34.6763V45.1655C34.6763 46.431 35.3239 47.3941 36.481 47.3941C37.5465 47.3941 38.3155 46.5703 38.3155 45.1655V40.1167H40.0596V45.281C40.0596 47.5691 38.7453 49.0286 36.481 49.0286C34.3596 49.0286 32.9263 47.6857 32.9263 45.281Z" fill="#ED7024"/>
<path d="M53.3169 40.1167V48.9262H51.5324L47.6574 43.0905H47.6324V48.9262H45.8955V40.1167H47.6324L51.5503 46.0679H51.5741V40.1167H53.3169Z" fill="#ED7024"/>
<path d="M59.2632 40.1179H62.1751C64.9596 40.1179 66.7465 41.9333 66.7465 44.5369C66.7465 47.1345 65.0453 48.9262 62.212 48.9262H59.2632V40.1179ZM62.1025 47.3702C63.8167 47.3702 64.9358 46.1476 64.9358 44.5369C64.9358 42.8845 63.7977 41.6786 62.2108 41.6786H60.9822V47.3702H62.1025Z" fill="#ED7024"/>
<path d="M76.9179 47.1643H73.5393L72.9393 48.9262H71.1167L74.3798 40.1167H76.0631L79.3381 48.9262H77.5155L76.9179 47.1643ZM76.4095 45.675L75.2286 42.2179H75.2167L74.0429 45.675H76.4095Z" fill="#ED7024"/>
<path d="M85.6061 41.6786H83.1787V40.1167H89.7835V41.6786H87.3442V48.9262H85.6061V41.6786Z" fill="#ED7024"/>
<path d="M96.9273 40.1179H95.1714V48.9274H96.9273V40.1179Z" fill="#ED7024"/>
<path d="M102.563 44.519C102.563 41.9095 104.392 40.0143 107.056 40.0143C109.64 40.0143 111.536 41.8309 111.536 44.519C111.536 47.2131 109.64 49.0286 107.056 49.0286C104.392 49.0286 102.563 47.1333 102.563 44.519ZM107.062 47.4071C108.581 47.4071 109.726 46.1774 109.726 44.519C109.726 42.8607 108.582 41.6429 107.062 41.6429C105.475 41.6429 104.38 42.9202 104.38 44.519C104.38 46.1226 105.475 47.4071 107.062 47.4071Z" fill="#ED7024"/>
<path d="M124.542 40.1167V48.9262H122.756L118.881 43.0905H118.856V48.9262H117.119V40.1167H118.856L122.774 46.0679H122.798V40.1167H124.542Z" fill="#ED7024"/>
<path d="M34.7439 1.32977V11.1131C32.0927 10.1369 29.3153 9.44882 26.4642 9.07739C25.8927 9.00477 25.3118 8.94049 24.7261 8.9012V5.73334C24.7261 2.79882 26.3951 1.32977 29.7344 1.32977H34.7439Z" fill="#ED7024"/>
<path d="M17.8975 5.73334V9.00834C14.4606 9.36906 11.0832 10.1262 7.88086 11.0441V1.32977H12.8892C16.2273 1.32977 17.8975 2.79882 17.8975 5.73334Z" fill="#ED7024"/>
<path d="M98.626 4.75832C96.7284 2.54046 94.3724 1.43213 91.5558 1.43213H75.2153V35.4797H80.2237C83.5629 35.4797 85.232 34.0131 85.232 31.0786V24.0964H90.3415C93.5629 24.0964 96.1843 22.9583 98.2081 20.6821C100.232 18.4059 101.282 15.7369 101.357 12.6762C101.434 9.61546 100.524 6.97618 98.626 4.75832ZM88.1153 16.0024H85.232V8.21189H88.1153C90.9486 8.21189 92.3653 9.5107 92.3653 12.1071C92.3653 14.7036 90.9486 16.0024 88.1153 16.0024Z" fill="#ED7024"/>
<path d="M55.9845 5.13689C55.6619 6.45475 55.7452 7.8857 56.219 9.28689C55.8285 9.24284 55.4238 9.21903 55.0035 9.21903C52.475 9.21903 50.444 10.0583 48.9059 11.7381C47.3726 13.4178 46.6071 15.5309 46.6071 18.0893V18.1726C43.9417 15.8143 40.925 13.8476 37.6738 12.3345C38.4798 9.60117 39.9048 7.23332 41.95 5.23689C45.3238 1.96189 49.6726 0.31665 54.994 0.31665C56.4833 0.31665 57.8988 0.448793 59.2404 0.707127C57.5762 1.80356 56.419 3.35594 55.9845 5.13689Z" fill="#ED7024"/>
<path d="M17.8977 27.6964V31.0798C17.8977 31.2119 17.8882 31.3333 17.8834 31.4607C17.8584 31.8809 17.8001 32.2714 17.7025 32.6274C17.6001 32.9988 17.4584 33.3298 17.2727 33.6286C16.5156 34.8643 15.0513 35.4833 12.8894 35.4833H7.87988V25.1583C11.1311 26.7095 14.387 27.5345 17.8977 27.6964Z" fill="#ED7024"/>
<path d="M103.495 35.4809V1.33093H124.541V5.35236C124.541 8.03331 123.243 9.37379 120.646 9.37379H113.513V14.2809H123.53V18.3286C123.53 21.0274 122.231 22.3762 119.634 22.3762H113.514V27.4345H124.543V31.4571C124.543 34.1381 123.244 35.4785 120.647 35.4785H103.495V35.4809Z" fill="#ED7024"/>
<path d="M72.5406 13.1821C71.6763 9.97262 69.9799 7.47024 67.9049 4.92976C67.5061 4.44167 67.1013 3.92619 66.9561 3.3119C66.674 2.125 67.4025 1.04286 67.8371 0C66.2561 0.910714 64.6049 1.4619 62.8573 1.96429C60.9371 2.51667 59.0668 3.83452 58.593 5.775C58.2728 7.09405 58.6478 8.50476 59.3299 9.67857C60.3252 11.3929 61.9216 12.5321 62.7359 14.3679C63.5085 16.1095 63.718 18.1119 63.2764 19.9702C62.7383 22.231 61.224 24.2524 59.1788 25.356C57.6871 26.1607 55.9609 26.4762 54.2669 26.4357C50.8538 26.3548 49.0562 24.4381 46.8228 22.1024C41.38 16.4071 33.9098 12.7619 26.1181 11.7393C18.1467 10.6929 10.1265 12.9429 2.642 15.5357C1.75628 15.8405 0.870572 16.1524 0.00033626 16.4976C0.00033626 16.4976 -0.16514 17.4464 6.84556 21.5643C13.8563 25.6821 19.8491 25.6857 28.2705 23.9357C31.7574 23.2119 34.8431 23.031 37.5002 23.169C39.0419 23.25 40.4407 23.4369 41.6859 23.6893C40.2038 23.5048 38.874 23.4821 37.6074 23.5905C34.6883 23.844 32.111 24.8107 28.8193 26.1988C26.48 27.1857 21.6598 30.6131 19.755 32.0643C19.755 32.0643 24.0193 34.9512 28.9979 35.481C34.0645 36.019 38.1467 31.9333 41.1252 30.2833C41.1824 30.2524 41.2395 30.225 41.2967 30.194C42.074 29.7762 42.8217 29.4595 43.5443 29.2131C42.8717 29.6226 42.2395 30.0762 41.6431 30.5524C40.3145 31.6119 39.174 32.7929 38.2479 33.9393C37.68 34.6417 37.1812 35.2821 36.7586 35.8393C36.7586 35.8393 40.1026 37.2012 43.7455 36.3988C45.2693 36.0631 46.5824 35.3381 47.6752 34.5298C49.1943 33.406 50.2883 32.119 50.9073 31.4821C51.7216 30.6464 52.6371 29.8298 53.5454 29.1524L53.5621 29.1619C50.9109 31.4393 49.3788 34.0643 48.9097 34.9488C48.8812 35.0024 53.8085 35.8012 54.3895 35.831C56.2954 35.9298 58.2145 35.7071 60.0537 35.2048C63.6585 34.219 66.9823 32.1381 69.3335 29.219C73.0359 24.6226 74.0025 18.6107 72.5406 13.1821ZM62.874 4.99881C62.5871 5.26667 62.1371 5.25119 61.868 4.9631C61.6002 4.67619 61.6168 4.22619 61.9049 3.95833C62.1918 3.69048 62.6418 3.70595 62.9109 3.99405C63.1776 4.28095 63.1609 4.73214 62.874 4.99881Z" fill="#15ADEC"/>
</g>
<defs>
<clipPath id="clip0_3773_212">
<rect width="125" height="50" fill="white"/>
</clipPath>
</defs>
</svg>
